# MagicaVoxel @ Ephtracy

# group
o 

# material
mtllib myCharacter-3.mtl
usemtl palette

# normals
vn -1 0 0
vn 1 0 0
vn 0 0 1
vn 0 0 -1
vn 0 -1 0
vn 0 1 0

# texcoords
vt 0.689453 0.5
vt 0.693359 0.5

# verts
v -0.3 5.3 10.9
v -0.3 5.3 10.6
v -0.3 6.1 10.9
v -0.3 6.1 10.6
v -0.2 5.3 11
v -0.2 5.3 10.9
v -0.2 5.3 10.6
v -0.2 5.3 10.5
v -0.2 6.1 11
v -0.2 6.1 10.9
v -0.2 6.1 10.6
v -0.2 6.1 10.5
v -0.2 6.2 10.9
v -0.2 6.2 10.6
v 0.1 5.3 11
v 0.1 5.3 10.9
v 0.1 5.3 10.6
v 0.1 5.3 10.5
v 0.1 6.1 11
v 0.1 6.1 10.9
v 0.1 6.1 10.6
v 0.1 6.1 10.5
v 0.2 5.3 10.9
v 0.2 5.3 10.6
v 0.2 6.2 10.9
v 0.2 6.2 10.6
v -0.2 5.3 11
v -0.2 6.1 11
v 0.1 5.3 11
v 0.1 6.1 11
v -0.3 5.3 10.9
v -0.3 6.1 10.9
v -0.2 5.3 10.9
v -0.2 6.1 10.9
v -0.2 6.2 10.9
v 0.1 5.3 10.9
v 0.1 6.1 10.9
v 0.2 5.3 10.9
v 0.2 6.2 10.9
v -0.3 5.3 10.6
v -0.3 6.1 10.6
v -0.2 5.3 10.6
v -0.2 6.1 10.6
v -0.2 6.2 10.6
v 0.1 5.3 10.6
v 0.1 6.1 10.6
v 0.2 5.3 10.6
v 0.2 6.2 10.6
v -0.2 5.3 10.5
v -0.2 6.1 10.5
v 0.1 5.3 10.5
v 0.1 6.1 10.5
v -0.2 5.3 11
v 0.1 5.3 11
v -0.3 5.3 10.9
v -0.2 5.3 10.9
v 0.1 5.3 10.9
v 0.2 5.3 10.9
v -0.3 5.3 10.6
v -0.2 5.3 10.6
v 0.1 5.3 10.6
v 0.2 5.3 10.6
v -0.2 5.3 10.5
v 0.1 5.3 10.5
v -0.2 6.1 11
v 0.1 6.1 11
v -0.3 6.1 10.9
v -0.2 6.1 10.9
v 0.1 6.1 10.9
v -0.3 6.1 10.6
v -0.2 6.1 10.6
v 0.1 6.1 10.6
v -0.2 6.1 10.5
v 0.1 6.1 10.5
v -0.2 6.2 10.9
v 0.2 6.2 10.9
v -0.2 6.2 10.6
v 0.2 6.2 10.6

# faces
f 3/2/1 2/2/1 1/2/1
f 4/2/1 2/2/1 3/2/1
f 9/2/1 6/2/1 5/2/1
f 10/2/1 6/2/1 9/2/1
f 11/2/1 8/2/1 7/2/1
f 12/2/1 8/2/1 11/2/1
f 13/2/1 11/2/1 10/2/1
f 14/2/1 11/2/1 13/2/1
f 15/2/2 16/2/2 19/2/2
f 19/2/2 16/2/2 20/2/2
f 17/2/2 18/2/2 21/2/2
f 21/2/2 18/2/2 22/2/2
f 23/2/2 24/2/2 25/2/2
f 25/2/2 24/2/2 26/2/2
f 29/2/3 28/2/3 27/2/3
f 30/2/3 28/2/3 29/2/3
f 33/2/3 32/2/3 31/2/3
f 34/2/3 32/2/3 33/2/3
f 37/2/3 35/2/3 34/2/3
f 38/2/3 37/2/3 36/2/3
f 39/2/3 35/2/3 37/2/3
f 39/2/3 37/2/3 38/2/3
f 40/2/4 41/2/4 42/2/4
f 42/2/4 41/2/4 43/2/4
f 43/2/4 44/2/4 46/2/4
f 45/2/4 46/2/4 47/2/4
f 46/2/4 44/2/4 48/2/4
f 47/2/4 46/2/4 48/2/4
f 49/2/4 50/2/4 51/2/4
f 51/2/4 50/2/4 52/2/4
f 56/2/5 54/2/5 53/2/5
f 57/2/5 54/2/5 56/2/5
f 59/2/5 56/2/5 55/2/5
f 60/1/5 57/1/5 56/1/5
f 60/2/5 56/2/5 59/2/5
f 61/2/5 58/2/5 57/2/5
f 61/1/5 57/1/5 60/1/5
f 62/2/5 58/2/5 61/2/5
f 63/2/5 61/2/5 60/2/5
f 64/2/5 61/2/5 63/2/5
f 65/2/6 66/2/6 68/2/6
f 68/2/6 66/2/6 69/2/6
f 67/2/6 68/2/6 70/2/6
f 70/2/6 68/2/6 71/2/6
f 71/2/6 72/2/6 73/2/6
f 73/2/6 72/2/6 74/2/6
f 75/2/6 76/2/6 77/2/6
f 77/2/6 76/2/6 78/2/6
