# MagicaVoxel @ Ephtracy

# group
o 

# material
mtllib myCharacter-2.mtl
usemtl palette

# normals
vn -1 0 0
vn 1 0 0
vn 0 0 1
vn 0 0 -1
vn 0 -1 0
vn 0 1 0

# texcoords
vt 0.0292969 0.5
vt 0.689453 0.5
vt 0.693359 0.5
vt 0.958984 0.5
vt 0.962891 0.5
vt 0.982422 0.5
vt 0.990234 0.5

# verts
v -0.3 4.1 9.6
v -0.3 4.1 9.3
v -0.3 4.8 9.6
v -0.3 4.8 9.3
v -0.2 3.8 9.9
v -0.2 3.8 9.8
v -0.2 3.8 9.6
v -0.2 3.8 9.3
v -0.2 3.8 9.1
v -0.2 3.9 9.3
v -0.2 3.9 9.2
v -0.2 4.1 9.7
v -0.2 4.1 9.6
v -0.2 4.1 9.3
v -0.2 4.1 9.2
v -0.2 4.2 9.9
v -0.2 4.2 9.8
v -0.2 4.2 9.3
v -0.2 4.2 9.2
v -0.2 4.2 9.1
v -0.2 4.8 9.7
v -0.2 4.8 9.6
v -0.2 4.8 9.3
v -0.2 4.8 9.2
v -0.1 3.7 9.9
v -0.1 3.7 9.8
v -0.1 3.8 12.4
v -0.1 3.8 9.9
v -0.1 3.8 9.8
v -0.1 3.9 12.5
v -0.1 3.9 12.4
v -0.1 3.9 9.8
v -0.1 3.9 9.6
v -0.1 3.9 9.3
v -0.1 3.9 9.2
v -0.1 4 12.5
v -0.1 4 11.9
v -0.1 4 9.9
v -0.1 4.1 11.9
v -0.1 4.1 11.4
v -0.1 4.1 9.8
v -0.1 4.1 9.7
v -0.1 4.1 9.6
v -0.1 4.1 9.3
v -0.1 4.1 9.2
v -0.1 4.2 11.4
v -0.1 4.2 9.9
v -0.1 4.2 9.8
v -0.1 4.3 9.9
v -0.1 4.3 9.8
v 0 3.8 9.3
v 0 3.8 9.2
v 0 3.9 9.3
v 0 3.9 9.2
v -0.1 3.8 9.3
v -0.1 3.8 9.2
v -0.1 3.9 9.3
v -0.1 3.9 9.2
v 0 3.7 9.9
v 0 3.7 9.8
v 0 3.8 12.4
v 0 3.8 9.9
v 0 3.8 9.8
v 0 3.9 12.5
v 0 3.9 12.4
v 0 3.9 9.8
v 0 3.9 9.6
v 0 3.9 9.3
v 0 3.9 9.2
v 0 4 12.5
v 0 4 11.9
v 0 4 9.9
v 0 4.1 11.9
v 0 4.1 11.4
v 0 4.1 9.8
v 0 4.1 9.7
v 0 4.1 9.6
v 0 4.1 9.3
v 0 4.1 9.2
v 0 4.2 11.4
v 0 4.2 9.9
v 0 4.2 9.8
v 0 4.3 9.9
v 0 4.3 9.8
v 0.1 3.8 9.9
v 0.1 3.8 9.8
v 0.1 3.8 9.6
v 0.1 3.8 9.3
v 0.1 3.8 9.1
v 0.1 3.9 9.3
v 0.1 3.9 9.2
v 0.1 4.1 9.7
v 0.1 4.1 9.6
v 0.1 4.1 9.3
v 0.1 4.1 9.2
v 0.1 4.2 9.9
v 0.1 4.2 9.8
v 0.1 4.2 9.3
v 0.1 4.2 9.2
v 0.1 4.2 9.1
v 0.1 4.8 9.7
v 0.1 4.8 9.6
v 0.1 4.8 9.3
v 0.1 4.8 9.2
v 0.2 4.1 9.6
v 0.2 4.1 9.3
v 0.2 4.8 9.6
v 0.2 4.8 9.3
v -0.1 3.9 12.5
v -0.1 4 12.5
v 0 3.9 12.5
v 0 4 12.5
v -0.1 3.8 12.4
v -0.1 3.9 12.4
v 0 3.8 12.4
v 0 3.9 12.4
v -0.1 4 11.9
v -0.1 4.1 11.9
v 0 4 11.9
v 0 4.1 11.9
v -0.1 4.1 11.4
v -0.1 4.2 11.4
v 0 4.1 11.4
v 0 4.2 11.4
v -0.2 3.8 9.9
v -0.2 4.2 9.9
v -0.1 3.7 9.9
v -0.1 3.8 9.9
v -0.1 4 9.9
v -0.1 4.2 9.9
v -0.1 4.3 9.9
v 0 3.7 9.9
v 0 3.8 9.9
v 0 4 9.9
v 0 4.2 9.9
v 0 4.3 9.9
v 0.1 3.8 9.9
v 0.1 4.2 9.9
v -0.2 4.1 9.7
v -0.2 4.8 9.7
v -0.1 4.1 9.7
v 0 4.1 9.7
v 0.1 4.1 9.7
v 0.1 4.8 9.7
v -0.3 4.1 9.6
v -0.3 4.8 9.6
v -0.2 3.8 9.6
v -0.2 4.1 9.6
v -0.2 4.8 9.6
v -0.1 3.9 9.6
v -0.1 4.1 9.6
v 0 3.9 9.6
v 0 4.1 9.6
v 0.1 3.8 9.6
v 0.1 4.1 9.6
v 0.1 4.8 9.6
v 0.2 4.1 9.6
v 0.2 4.8 9.6
v -0.2 3.9 9.2
v -0.2 4.1 9.2
v -0.1 3.8 9.2
v -0.1 3.9 9.2
v -0.1 4.1 9.2
v 0 3.8 9.2
v 0 3.9 9.2
v 0 4.1 9.2
v 0.1 3.9 9.2
v 0.1 4.1 9.2
v -0.2 3.8 9.8
v -0.2 4.2 9.8
v -0.1 3.7 9.8
v -0.1 3.8 9.8
v -0.1 3.9 9.8
v -0.1 4.1 9.8
v -0.1 4.2 9.8
v -0.1 4.3 9.8
v 0 3.7 9.8
v 0 3.8 9.8
v 0 3.9 9.8
v 0 4.1 9.8
v 0 4.2 9.8
v 0 4.3 9.8
v 0.1 3.8 9.8
v 0.1 4.2 9.8
v -0.3 4.1 9.3
v -0.3 4.8 9.3
v -0.2 3.9 9.3
v -0.2 4.1 9.3
v -0.2 4.2 9.3
v -0.2 4.8 9.3
v -0.1 3.8 9.3
v -0.1 3.9 9.3
v -0.1 4.1 9.3
v 0 3.8 9.3
v 0 3.9 9.3
v 0 4.1 9.3
v 0.1 3.9 9.3
v 0.1 4.1 9.3
v 0.1 4.2 9.3
v 0.1 4.8 9.3
v 0.2 4.1 9.3
v 0.2 4.8 9.3
v -0.2 4.2 9.2
v -0.2 4.8 9.2
v 0.1 4.2 9.2
v 0.1 4.8 9.2
v -0.2 3.8 9.1
v -0.2 4.2 9.1
v -0.1 3.9 9.1
v -0.1 4.1 9.1
v 0 3.9 9.1
v 0 4.1 9.1
v 0.1 3.8 9.1
v 0.1 4.2 9.1
v -0.1 3.7 9.9
v 0 3.7 9.9
v -0.1 3.7 9.8
v 0 3.7 9.8
v -0.1 3.8 12.4
v 0 3.8 12.4
v -0.2 3.8 9.9
v -0.1 3.8 9.9
v 0 3.8 9.9
v 0.1 3.8 9.9
v -0.2 3.8 9.8
v -0.1 3.8 9.8
v 0 3.8 9.8
v 0.1 3.8 9.8
v -0.2 3.8 9.6
v 0.1 3.8 9.6
v -0.2 3.8 9.3
v -0.1 3.8 9.3
v 0 3.8 9.3
v 0.1 3.8 9.3
v -0.1 3.8 9.2
v 0 3.8 9.2
v -0.2 3.8 9.1
v 0.1 3.8 9.1
v -0.1 3.9 12.5
v 0 3.9 12.5
v -0.1 3.9 12.4
v 0 3.9 12.4
v -0.1 3.9 9.8
v 0 3.9 9.8
v -0.1 3.9 9.6
v 0 3.9 9.6
v -0.1 3.9 9.3
v 0 3.9 9.3
v -0.1 3.9 9.2
v 0 3.9 9.2
v -0.2 4.1 9.7
v -0.1 4.1 9.7
v 0 4.1 9.7
v 0.1 4.1 9.7
v -0.3 4.1 9.6
v -0.2 4.1 9.6
v -0.1 4.1 9.6
v 0 4.1 9.6
v 0.1 4.1 9.6
v 0.2 4.1 9.6
v -0.3 4.1 9.3
v -0.2 4.1 9.3
v -0.1 4.1 9.3
v 0 4.1 9.3
v 0.1 4.1 9.3
v 0.2 4.1 9.3
v -0.2 4.1 9.2
v -0.1 4.1 9.2
v 0 4.1 9.2
v 0.1 4.1 9.2
v -0.2 3.9 9.3
v -0.1 3.9 9.3
v 0 3.9 9.3
v 0.1 3.9 9.3
v -0.2 3.9 9.2
v -0.1 3.9 9.2
v 0 3.9 9.2
v 0.1 3.9 9.2
v -0.1 4 12.5
v 0 4 12.5
v -0.1 4 11.9
v 0 4 11.9
v -0.1 4.1 11.9
v 0 4.1 11.9
v -0.1 4.1 11.4
v 0 4.1 11.4
v -0.1 4.1 9.8
v 0 4.1 9.8
v -0.1 4.1 9.7
v 0 4.1 9.7
v -0.1 4.2 11.4
v 0 4.2 11.4
v -0.2 4.2 9.9
v -0.1 4.2 9.9
v 0 4.2 9.9
v 0.1 4.2 9.9
v -0.2 4.2 9.8
v -0.1 4.2 9.8
v 0 4.2 9.8
v 0.1 4.2 9.8
v -0.2 4.2 9.2
v 0.1 4.2 9.2
v -0.2 4.2 9.1
v 0.1 4.2 9.1
v -0.1 4.3 9.9
v 0 4.3 9.9
v -0.1 4.3 9.8
v 0 4.3 9.8
v -0.2 4.8 9.7
v 0.1 4.8 9.7
v -0.3 4.8 9.6
v -0.2 4.8 9.6
v 0.1 4.8 9.6
v 0.2 4.8 9.6
v -0.3 4.8 9.3
v -0.2 4.8 9.3
v 0.1 4.8 9.3
v 0.2 4.8 9.3
v -0.2 4.8 9.2
v 0.1 4.8 9.2

# faces
f 3/3/1 2/3/1 1/3/1
f 4/3/1 2/3/1 3/3/1
f 10/1/1 8/1/1 7/1/1
f 10/6/1 9/6/1 8/6/1
f 11/6/1 9/6/1 10/6/1
f 13/1/1 10/1/1 7/1/1
f 14/1/1 10/1/1 13/1/1
f 15/6/1 9/6/1 11/6/1
f 16/6/1 6/6/1 5/6/1
f 17/6/1 6/6/1 16/6/1
f 18/6/1 15/6/1 14/6/1
f 19/6/1 9/6/1 15/6/1
f 19/6/1 15/6/1 18/6/1
f 20/6/1 9/6/1 19/6/1
f 21/3/1 13/3/1 12/3/1
f 22/3/1 13/3/1 21/3/1
f 23/3/1 19/3/1 18/3/1
f 24/3/1 19/3/1 23/3/1
f 28/6/1 26/6/1 25/6/1
f 29/6/1 26/6/1 28/6/1
f 31/4/1 28/4/1 27/4/1
f 36/4/1 31/4/1 30/4/1
f 37/4/1 28/4/1 31/4/1
f 37/4/1 31/4/1 36/4/1
f 38/4/1 28/4/1 37/4/1
f 39/5/1 38/5/1 37/5/1
f 40/5/1 38/5/1 39/5/1
f 41/7/1 33/7/1 32/7/1
f 42/7/1 33/7/1 41/7/1
f 43/7/1 33/7/1 42/7/1
f 44/7/1 35/7/1 34/7/1
f 45/7/1 35/7/1 44/7/1
f 46/5/1 38/5/1 40/5/1
f 47/5/1 38/5/1 46/5/1
f 49/6/1 48/6/1 47/6/1
f 50/6/1 48/6/1 49/6/1
f 53/6/1 52/6/1 51/6/1
f 54/6/1 52/6/1 53/6/1
f 55/6/2 56/6/2 57/6/2
f 57/6/2 56/6/2 58/6/2
f 59/6/2 60/6/2 62/6/2
f 62/6/2 60/6/2 63/6/2
f 61/4/2 62/4/2 65/4/2
f 64/4/2 65/4/2 70/4/2
f 65/4/2 62/4/2 71/4/2
f 70/4/2 65/4/2 71/4/2
f 71/4/2 62/4/2 72/4/2
f 71/5/2 72/5/2 73/5/2
f 73/5/2 72/5/2 74/5/2
f 66/7/2 67/7/2 75/7/2
f 75/7/2 67/7/2 76/7/2
f 76/7/2 67/7/2 77/7/2
f 68/7/2 69/7/2 78/7/2
f 78/7/2 69/7/2 79/7/2
f 74/5/2 72/5/2 80/5/2
f 80/5/2 72/5/2 81/5/2
f 81/6/2 82/6/2 83/6/2
f 83/6/2 82/6/2 84/6/2
f 87/1/2 88/1/2 90/1/2
f 88/6/2 89/6/2 90/6/2
f 90/6/2 89/6/2 91/6/2
f 87/1/2 90/1/2 93/1/2
f 93/1/2 90/1/2 94/1/2
f 91/6/2 89/6/2 95/6/2
f 85/6/2 86/6/2 96/6/2
f 96/6/2 86/6/2 97/6/2
f 94/6/2 95/6/2 98/6/2
f 95/6/2 89/6/2 99/6/2
f 98/6/2 95/6/2 99/6/2
f 99/6/2 89/6/2 100/6/2
f 92/3/2 93/3/2 101/3/2
f 101/3/2 93/3/2 102/3/2
f 98/3/2 99/3/2 103/3/2
f 103/3/2 99/3/2 104/3/2
f 105/3/2 106/3/2 107/3/2
f 107/3/2 106/3/2 108/3/2
f 111/4/3 110/4/3 109/4/3
f 112/4/3 110/4/3 111/4/3
f 115/4/3 114/4/3 113/4/3
f 116/4/3 114/4/3 115/4/3
f 119/5/3 118/5/3 117/5/3
f 120/5/3 118/5/3 119/5/3
f 123/5/3 122/5/3 121/5/3
f 124/5/3 122/5/3 123/5/3
f 128/6/3 126/6/3 125/6/3
f 129/6/3 126/6/3 128/6/3
f 130/6/3 126/6/3 129/6/3
f 132/6/3 128/6/3 127/6/3
f 133/6/3 128/6/3 132/6/3
f 135/6/3 131/6/3 130/6/3
f 136/6/3 131/6/3 135/6/3
f 137/6/3 134/6/3 133/6/3
f 137/6/3 135/6/3 134/6/3
f 138/6/3 135/6/3 137/6/3
f 141/3/3 140/3/3 139/3/3
f 142/3/3 140/3/3 141/3/3
f 143/3/3 140/3/3 142/3/3
f 144/3/3 140/3/3 143/3/3
f 148/3/3 146/3/3 145/3/3
f 149/3/3 146/3/3 148/3/3
f 150/1/3 148/1/3 147/1/3
f 151/1/3 148/1/3 150/1/3
f 152/1/3 150/1/3 147/1/3
f 154/1/3 152/1/3 147/1/3
f 154/1/3 153/1/3 152/1/3
f 155/1/3 153/1/3 154/1/3
f 157/3/3 156/3/3 155/3/3
f 158/3/3 156/3/3 157/3/3
f 162/6/3 160/6/3 159/6/3
f 163/6/3 160/6/3 162/6/3
f 164/6/3 162/6/3 161/6/3
f 165/6/3 162/6/3 164/6/3
f 167/6/3 166/6/3 165/6/3
f 168/6/3 166/6/3 167/6/3
f 169/6/4 170/6/4 172/6/4
f 172/6/4 170/6/4 173/6/4
f 173/6/4 170/6/4 174/6/4
f 174/6/4 170/6/4 175/6/4
f 171/6/4 172/6/4 177/6/4
f 172/6/4 173/6/4 177/6/4
f 177/6/4 173/6/4 178/6/4
f 178/6/4 173/6/4 179/6/4
f 175/6/4 176/6/4 180/6/4
f 174/6/4 175/6/4 180/6/4
f 180/6/4 176/6/4 181/6/4
f 181/6/4 176/6/4 182/6/4
f 178/6/4 179/6/4 183/6/4
f 180/6/4 181/6/4 183/6/4
f 179/6/4 180/6/4 183/6/4
f 183/6/4 181/6/4 184/6/4
f 185/3/4 186/3/4 188/3/4
f 188/3/4 186/3/4 189/3/4
f 189/3/4 186/3/4 190/3/4
f 187/1/4 188/1/4 192/1/4
f 192/1/4 188/1/4 193/1/4
f 191/1/4 192/1/4 194/1/4
f 194/1/4 192/1/4 195/1/4
f 195/1/4 196/1/4 197/1/4
f 197/1/4 196/1/4 198/1/4
f 199/3/4 200/3/4 201/3/4
f 198/3/4 199/3/4 201/3/4
f 201/3/4 200/3/4 202/3/4
f 203/3/4 204/3/4 205/3/4
f 205/3/4 204/3/4 206/3/4
f 207/6/4 208/6/4 209/6/4
f 209/6/4 208/6/4 210/6/4
f 207/6/4 209/6/4 211/6/4
f 209/3/4 210/3/4 211/3/4
f 210/6/4 208/6/4 212/6/4
f 211/3/4 210/3/4 212/3/4
f 207/6/4 211/6/4 213/6/4
f 211/6/4 212/6/4 213/6/4
f 212/6/4 208/6/4 214/6/4
f 213/6/4 212/6/4 214/6/4
f 217/6/5 216/6/5 215/6/5
f 218/6/5 216/6/5 217/6/5
f 222/4/5 220/4/5 219/4/5
f 223/4/5 220/4/5 222/4/5
f 225/6/5 222/6/5 221/6/5
f 226/6/5 222/6/5 225/6/5
f 227/6/5 224/6/5 223/6/5
f 228/6/5 224/6/5 227/6/5
f 231/1/5 230/1/5 229/1/5
f 232/1/5 230/1/5 231/1/5
f 233/1/5 230/1/5 232/1/5
f 234/1/5 230/1/5 233/1/5
f 235/6/5 232/6/5 231/6/5
f 236/6/5 234/6/5 233/6/5
f 237/6/5 235/6/5 231/6/5
f 237/6/5 236/6/5 235/6/5
f 238/6/5 234/6/5 236/6/5
f 238/6/5 236/6/5 237/6/5
f 241/4/5 240/4/5 239/4/5
f 242/4/5 240/4/5 241/4/5
f 245/7/5 244/7/5 243/7/5
f 246/7/5 244/7/5 245/7/5
f 249/7/5 248/7/5 247/7/5
f 250/7/5 248/7/5 249/7/5
f 256/3/5 252/3/5 251/3/5
f 257/3/5 252/3/5 256/3/5
f 258/3/5 254/3/5 253/3/5
f 259/3/5 254/3/5 258/3/5
f 261/3/5 256/3/5 255/3/5
f 262/3/5 256/3/5 261/3/5
f 265/3/5 260/3/5 259/3/5
f 266/3/5 260/3/5 265/3/5
f 267/6/5 263/6/5 262/6/5
f 268/6/5 263/6/5 267/6/5
f 269/6/5 265/6/5 264/6/5
f 270/6/5 265/6/5 269/6/5
f 271/6/6 272/6/6 275/6/6
f 275/6/6 272/6/6 276/6/6
f 273/6/6 274/6/6 277/6/6
f 277/6/6 274/6/6 278/6/6
f 279/4/6 280/4/6 281/4/6
f 281/4/6 280/4/6 282/4/6
f 283/5/6 284/5/6 285/5/6
f 285/5/6 284/5/6 286/5/6
f 287/7/6 288/7/6 289/7/6
f 289/7/6 288/7/6 290/7/6
f 291/5/6 292/5/6 294/5/6
f 294/5/6 292/5/6 295/5/6
f 293/6/6 294/6/6 297/6/6
f 297/6/6 294/6/6 298/6/6
f 295/6/6 296/6/6 299/6/6
f 299/6/6 296/6/6 300/6/6
f 301/6/6 302/6/6 303/6/6
f 303/6/6 302/6/6 304/6/6
f 305/6/6 306/6/6 307/6/6
f 307/6/6 306/6/6 308/6/6
f 309/3/6 310/3/6 312/3/6
f 312/3/6 310/3/6 313/3/6
f 311/3/6 312/3/6 315/3/6
f 312/2/6 313/2/6 316/2/6
f 315/3/6 312/3/6 316/3/6
f 313/3/6 314/3/6 317/3/6
f 316/2/6 313/2/6 317/2/6
f 317/3/6 314/3/6 318/3/6
f 316/3/6 317/3/6 319/3/6
f 319/3/6 317/3/6 320/3/6
